<?xml version="1.0" encoding="UTF-8"?>
<svg id="_Слой_1" data-name="Слой 1" xmlns="http://www.w3.org/2000/svg" viewBox="0 0 54.74 31.97">
  <defs>
    <style>
      .cls-1 {
        stroke-width: 0px;
      }

      .cls-1, .cls-2 {
        fill: #000;
      }

      .cls-3 {
        fill: none;
        stroke: #000;
      }

      .cls-3, .cls-2 {
        stroke-miterlimit: 10;
      }

      .cls-2 {
        font-family: MyriadPro-Regular, 'Myriad Pro';
        font-size: 18px;
        stroke: #fff;
        stroke-width: .5px;
      }

      .cls-4 {
        letter-spacing: 0em;
      }
    </style>
  </defs>
  <path class="cls-1" d="M2.67,18.6c3.33-1.27,6.85-1.28,10.37-1.23,3.88.05,7.76.11,11.63.17s7.61.11,11.41.17c3.72.05,7.75.56,11.4-.31,1.88-.45,1.08-3.34-.8-2.89s-3.76.3-5.64.28-3.8-.06-5.71-.08c-3.89-.06-7.77-.11-11.66-.17s-7.54-.12-11.31-.16c-3.54-.04-7.15.08-10.49,1.35-1.79.68-1.01,3.58.8,2.89h0Z"/>
  <path class="cls-1" d="M1.92,17.62c-.11,2.47-.16,5.2.41,7.62.54,2.26,3.5,2.53,5.41,3.09,1.17.34,2.35.67,3.53.98,1.12.3,2.41.82,3.58.83,2.44.02,2.68-3.38,3.16-5.12h-2.89c.17,1.17,0,2.29-.36,3.41l2.74-.36c-.49-1.1-.79-2.28-.91-3.48-.19-1.95-2.76-1.91-3,0-.08.64-.31,1.23-.61,1.8l2.05-.54c.32.64.45.65.39.03.01-.23.03-.45.04-.68.03-.53.06-1.05.1-1.58.07-1.19-1.31-1.8-2.26-1.3-1.16.62-2.33,1.24-3.49,1.86-1.25.67-.75,2.95.76,2.8,1.25-.13,2.49-.26,3.74-.4l-1.06-2.56c-.35.35-.71.3-1.13.49-.48.06-.45.1.1.13-.17-.17-.35-.33-.54-.48-.67-.56-1.4-1.01-2.21-1.34-1.75-.72-3.53-.7-5.26.09-1.41.65-.63,2.78.76,2.8s2.64.03,3.96.04c.96.01,2.03.1,2.89-.41,1.89-1.12,1.14-3.75-.76-4.35-1.02-.32-2.1.04-3.14-.02-.11,0-.67-.14-.74-.09l.46.67.13-.33c.34-.49.4-1.33.47-1.91.11-.88.16-1.97-.51-2.67-.73-.76-2.05-.77-2.71.06-.6.75-.72,2.07-.74,2.99-.02,1.2.57,1.97,1.58,2.57,1.75,1.02,3.97,1.46,5.48-.22,1.18-1.31,1.76-4.28.55-5.72-1.47-1.76-3.83.02-4.78,1.41s-1.65,4.03.28,4.93c1.7.79,4.36-.48,5.11-2.09,1.04-2.23-1.11-3.62-3.1-2.74-1.78.79-2.69,2.84-2.02,4.67s2.72,2.99,4.68,2.58,3.44-2.14,3.65-4.16c.18-1.74-.66-4.5-2.94-3.91-1.81.47-3.54,2.04-3.61,3.97-.07,2.06,1.64,4.75,3.99,4.06,2.05-.6,3.2-3.16,3.19-5.13,0-1.74-1.22-4.88-3.45-3.31-1.9,1.34-2.05,4.06-2.04,6.16,0,1.08.95,1.58,1.9,1.45.72-.1,1.33-.45,1.85-.95s.83-1.19,1.46-1.56l-1.51-2.59c-.92.59-1.65,1.34-2.1,2.35-.36.8-.15,2.02.9,2.2,4.12.73,8.27-.26,12.41-.2s8.39.24,12.58.36c1.93.06,1.93-2.94,0-3-4.04-.12-8.07-.27-12.11-.35-1.93-.04-3.82.04-5.74.23-2.11.2-4.25.44-6.35.07l.9,2.2c.24-.55.51-.95,1.02-1.27,1.62-1.03.16-3.58-1.51-2.59-.52.3-.93.66-1.31,1.13s-.65,1-1.28,1.08l1.9,1.45c0-.86-.03-1.76.21-2.59.07-.26.43-.75.42-.96-1.19-.79-1.64-.91-1.36-.35.07.14.12.29.15.45.15.65.05,1.35-.25,1.95-.12.25-.4.78-.7.87.39-.13,0-.15-.12-.61-.11-.41-.07-.64.2-.95.06-.08.94-.52.94-.57-.63-.43-.84-.38-.62.14.02.19.02.38-.02.57-.06.43-.22.81-.57,1.1-.47.39-1.19.52-1.66.07-.34-.32-.47-1.63.32-1.34l-1.05-1.05s-1.23.29-1.25.35c.42.83.65,1,.69.54.03-.18.07-.35.14-.52.16-.39.42-.74.74-1.01.13-.13.28-.23.45-.31-.85-.8-1.2-.84-1.06-.11-.27.78.15,1.95-1.15,1.68-.27-.06-1.01-.34-1.13-.56.14.26.17-.96.29-1.2l-.9.69.25-.06-1.16-.15c-.53-.34-.3-.99-.41.05-.04.38-.13.73-.25,1.1-.18.56-.42,1.04-.42,1.65,0,1.33,1.04,2,2.23,2.2.66.11,1.34.16,2.01.11.19-.01.91,0,1.03-.1l.34-1.11h-.3c-.54-.24-1.88-.01-2.48-.02-.83,0-1.65-.02-2.48-.03l.76,2.8c1.88-.86,3.34.59,4.73,1.58s3.75.23,4.91-.93c.85-.85.28-2.7-1.06-2.56-1.25.13-2.49.26-3.74.4l.76,2.8c1.16-.62,2.33-1.24,3.49-1.86l-2.26-1.3c-.09,1.46-.74,4.01.96,4.81.71.34,1.64.23,2.05-.54.57-1.06.87-2.12,1.02-3.31h-3c.17,1.76.6,3.37,1.32,4.99.56,1.27,2.38.74,2.74-.36.55-1.65.62-3.29.36-5-.23-1.53-2.52-1.32-2.89,0-.23.84-.47,1.67-.7,2.51-.06.23-.13.46-.19.69l.69-.29s-1.35-.33-1.42-.35c-1.74-.44-3.47-.91-5.18-1.42-.78-.23-1.56-.47-2.34-.71-.23-.07-.47-.15-.7-.22-.3-.1-.31-.1-.04,0-.17-.43-.14-1.06-.19-1.52-.17-1.76-.2-3.53-.12-5.3.09-1.93-2.91-1.93-3,0h0Z"/>
  <path class="cls-1" d="M15.93,22.21c7.79-.17,15.59.45,23.36.84,1.44.07,2.11-2.16.76-2.8-3.54-1.68-7.48-1.91-11.33-2.16-4.2-.27-8.41-.31-12.61.03-1.91.15-1.93,3.14,0,3,3.48-.25,6.96-.5,10.44-.52,1.78,0,3.56.11,5.34.06,1.69-.04,3.36-.27,5.03-.49.4-.05.8-.11,1.19-.15l.35-.04c.35.09.44,0,.27-.27.06-.67-.35.28-.39.4-.12.38-.15.72-.08,1.12.24,1.44,1.59,1.99,2.89,2.1s2.86.38,3.88-.58c1.09-1.03,1.76-2.83,2.49-4.11.58-1.01-.16-2.23-1.3-2.26-1-.03-1.79.36-2.55.98-.36.29-.69.62-1.06.89-.22.16-.45.3-.68.44-.52.2-.47.27.15.21l1.05,1.05c-.04.64.09.72.36.22.19-.2.39-.37.6-.54,1.1-.9.1-2.47-1.06-2.56-1.08-.08-2.04.16-3.01.62-1.75.82-.22,3.41,1.51,2.59.5-.23.95-.25,1.49-.21l-1.06-2.56c-1.1.9-3.11,3.61-.63,4.3.87.24,1.74-.3,2.44-.75.65-.42,1.65-1.71,2.44-1.68l-1.3-2.26c-.39.69-.79,1.37-1.18,2.06-.18.31-.33.8-.59,1.03-.46.42.5.07-.53.2-.27.03-.6-.03-.87-.04-.51-.03-.77-.23-.63.28.22.8.59-.92.58-1.21-.08-3.37-4.44-2.29-6.47-2.05-3.07.37-6.11.18-9.19.21-3.32.04-6.63.28-9.94.52v3c3.88-.31,7.76-.31,11.64-.09,3.57.2,7.5.25,10.79,1.81l.76-2.8c-7.77-.39-15.58-1.01-23.36-.84-1.93.04-1.93,3.04,0,3h0Z"/>
  <path class="cls-1" d="M15.08,19.11c6.02-.94,12.1.6,18.15.07.81-.07,1.5-.64,1.5-1.5,0-.76-.69-1.57-1.5-1.5-6.33.55-12.63-.95-18.94.04-.8.13-1.24,1.13-1.05,1.85.23.85,1.04,1.17,1.85,1.05h0Z"/>
  <path class="cls-1" d="M47.19,14.7c-1,2.33-2,4.67-3,7-.31.72-.24,1.64.54,2.05.64.34,1.72.23,2.05-.54l1.53-3.56c.31-.72.24-1.64-.54-2.05-.64-.34-1.72-.23-2.05.54l-1.53,3.56,2.59,1.51c1-2.33,2-4.67,3-7,.31-.72.24-1.64-.54-2.05-.64-.34-1.72-.23-2.05.54h0Z"/>
  <g>
    <line class="cls-3" x1="2.99" y1="27.07" x2="16.99" y2="30.22"/>
    <line class="cls-3" x1="13.49" y1="23.49" x2="44.99" y2="23.49"/>
    <line class="cls-3" x1="14.99" y1="6.39" x2="52.99" y2="6.39"/>
    <line class="cls-3" x1="52.99" y1="6.44" x2="44.99" y2="23.49"/>
    <line class="cls-3" x1="3.99" y1="3.7" x2="20.49" y2=".95"/>
    <line class="cls-3" x1="4.45" y1="3.66" x2="3.02" y2="10.89"/>
    <line class="cls-3" x1="2.99" y1="11.01" x2="8.99" y2="14.67"/>
    <line class="cls-3" x1="1.99" y1="18.33" x2="2.99" y2="27.02"/>
    <line class="cls-3" x1="1.99" y1="18.33" x2="8.99" y2="14.67"/>
    <line class="cls-3" x1="17.99" y1="23.82" x2="17.03" y2="30.46"/>
    <line class="cls-3" x1="20.76" y1=".9" x2="19.99" y2="6.44"/>
  </g>
  <text class="cls-2" transform="translate(2.49 15.32) scale(1.02 1)"><tspan x="0" y="0">AST</tspan><tspan class="cls-4" x="28.84" y="0">R</tspan><tspan x="38.57" y="0">O</tspan></text>
  <path class="cls-1" d="M43.49,19.6c-.13.29-.27.59-.35.91s-.12.62-.14.93c-.01.19-.01.39.01.58.04.33.08.65.17.97.11.37.35.7.69.9.17.11.36.17.56.18.2.04.4.04.6-.03.36-.12.71-.34.9-.69s.27-.77.15-1.16c-.05-.16-.09-.32-.11-.49l.05.4c-.04-.28-.04-.57,0-.85l-.05.4c.04-.27.11-.53.21-.78l-.15.36s.03-.07.05-.11c.11-.17.17-.36.18-.56.04-.2.04-.4-.03-.6-.1-.35-.36-.73-.69-.9-.35-.18-.77-.28-1.16-.15-.35.11-.74.34-.9.69h0Z"/>
  <path class="cls-1" d="M46.03,22.51l.74-1.4c.11-.17.17-.36.18-.56.04-.2.04-.4-.03-.6-.05-.2-.14-.37-.27-.51-.11-.16-.25-.29-.42-.39l-.36-.15c-.27-.07-.53-.07-.8,0l-.36.15c-.23.13-.4.31-.54.54l-.74,1.4c-.11.17-.17.36-.18.56-.04.2-.04.4.03.6.05.2.14.37.27.51.11.16.25.29.42.39l.36.15c.27.07.53.07.8,0l.36-.15c.23-.13.4-.31.54-.54h0Z"/>
  <path class="cls-1" d="M1.13,18.25c.27,1.82.64,3.61,1.13,5.38.21.76,1.07,1.3,1.85,1.05s1.27-1.03,1.05-1.85c-.49-1.77-.86-3.57-1.13-5.38-.05-.35-.4-.73-.69-.9-.32-.19-.8-.27-1.16-.15s-.71.34-.9.69c-.2.38-.21.73-.15,1.16h0Z"/>
  <path class="cls-1" d="M15.92,23.92l.05,5.56c0,.78.69,1.54,1.5,1.5s1.51-.66,1.5-1.5l-.05-5.56c0-.78-.69-1.54-1.5-1.5s-1.51.66-1.5,1.5h0Z"/>
  <path class="cls-1" d="M3.28,27.62l.27.12c.74.34,1.62.21,2.05-.54.4-.68.18-1.67-.54-2.05-.56-.3-1.21-.43-1.82-.18s-1.1.73-1.1,1.45c0,.66.47,1.27,1.1,1.45,1.24.34,2.49.6,3.77.78.64.09,1.29.15,1.93.22.39.05.66.19,1.02.35,1.02.46,2.09.72,3.2.89s2.29.19,3.3.59l-.9-.69.08.11c.47.66,1.31.97,2.05.54.65-.38,1.01-1.39.54-2.05-.79-1.12-2.35-1.12-3.59-1.3-1.06-.15-2.16-.29-3.16-.69-.59-.23-1.1-.56-1.73-.67s-1.22-.12-1.82-.2c-1.31-.16-2.6-.45-3.88-.79v2.89l-.5-.12,1.51-2.59-.27-.12c-.74-.34-1.62-.21-2.05.54-.38.65-.2,1.71.54,2.05h0Z"/>
  <path class="cls-1" d="M5.11,24.79c-.11-.13-.11-.12,0,.02-.04-.07-.08-.14-.12-.21.15.29.01-.02,0-.1-.02-.08-.04-.16-.05-.24.02.19.03.2,0,.03,0-.14-.01-.29-.02-.43-.01-.79-.01-1.57-.23-2.34-.19-.68-.4-1.33-.52-2.03-.08-.49.03.28-.03-.21-.02-.2-.04-.41-.06-.61-.03-.36-.05-.72-.08-1.08-.05-.78-.65-1.54-1.5-1.5-.77.03-1.56.66-1.5,1.5.06.9.13,1.81.27,2.7.12.75.36,1.44.55,2.17.02.09.05.18.06.28-.01-.15-.01-.13,0,.06.01.2.02.41.02.61,0,.34,0,.68.03,1.01.09.95.37,1.79,1.02,2.51.53.58,1.59.58,2.12,0,.57-.62.57-1.5,0-2.12h0Z"/>
  <path class="cls-1" d="M3.41,27.85l13.68,4.05.8-2.89-6.96-2.06c-1.86-.55-2.65,2.35-.8,2.89l6.96,2.06c1.86.55,2.65-2.35.8-2.89l-13.68-4.05c-1.86-.55-2.65,2.35-.8,2.89h0Z"/>
  <path class="cls-1" d="M.04,17.85l2,9,2.89-.8c-.34-1.53-.68-3.05-1.02-4.58-.17-.77-1.1-1.29-1.85-1.05-.81.26-1.23,1.02-1.05,1.85l1.02,4.58c.17.77,1.1,1.29,1.85,1.05.81-.26,1.23-1.02,1.05-1.85l-2-9c-.17-.77-1.1-1.29-1.85-1.05-.81.26-1.23,1.02-1.05,1.85H.04Z"/>
</svg>