<svg width="55" height="32" viewBox="0 0 55 32" fill="none" xmlns="http://www.w3.org/2000/svg">
<g clip-path="url(#clip0_101_2)">
<path d="M2.67 18.6C6 17.33 9.51999 17.32 13.04 17.37C16.92 17.42 20.8 17.48 24.67 17.54C28.54 17.6 32.28 17.65 36.08 17.71C39.8 17.76 43.83 18.27 47.48 17.4C49.36 16.95 48.56 14.06 46.68 14.51C44.8 14.96 42.92 14.81 41.04 14.79C39.16 14.77 37.24 14.73 35.33 14.71C31.44 14.65 27.56 14.6 23.67 14.54C19.78 14.48 16.13 14.42 12.36 14.38C8.81999 14.34 5.20999 14.46 1.86999 15.73C0.079995 16.41 0.859995 19.31 2.67 18.62V18.6Z" fill="black"/>
<path d="M1.92 17.62C1.81 20.09 1.76 22.82 2.33 25.24C2.87 27.5 5.83 27.77 7.74 28.33C8.91 28.67 10.09 29 11.27 29.31C12.39 29.61 13.68 30.13 14.85 30.14C17.29 30.16 17.53 26.76 18.01 25.02H15.12C15.29 26.19 15.12 27.31 14.76 28.43L17.5 28.07C17.01 26.97 16.71 25.79 16.59 24.59C16.4 22.64 13.83 22.68 13.59 24.59C13.51 25.23 13.28 25.82 12.98 26.39L15.03 25.85C15.35 26.49 15.48 26.5 15.42 25.88C15.43 25.65 15.45 25.43 15.46 25.2C15.49 24.67 15.52 24.15 15.56 23.62C15.63 22.43 14.25 21.82 13.3 22.32C12.14 22.94 10.97 23.56 9.81 24.18C8.56 24.85 9.06 27.13 10.57 26.98C11.82 26.85 13.06 26.72 14.31 26.58L13.25 24.02C12.9 24.37 12.54 24.32 12.12 24.51C11.64 24.57 11.67 24.61 12.22 24.64C12.05 24.47 11.87 24.31 11.68 24.16C11.01 23.6 10.28 23.15 9.47 22.82C7.72 22.1 5.94 22.12 4.21 22.91C2.8 23.56 3.58 25.69 4.97 25.71C6.36 25.73 7.61 25.74 8.93 25.75C9.89 25.76 10.96 25.85 11.82 25.34C13.71 24.22 12.96 21.59 11.06 20.99C10.04 20.67 8.96 21.03 7.92 20.97C7.81 20.97 7.25 20.83 7.18 20.88L7.64 21.55L7.77 21.22C8.11 20.73 8.17 19.89 8.24 19.31C8.35 18.43 8.4 17.34 7.73 16.64C7 15.88 5.68 15.87 5.02 16.7C4.42 17.45 4.3 18.77 4.28 19.69C4.26 20.89 4.85 21.66 5.86 22.26C7.61 23.28 9.83 23.72 11.34 22.04C12.52 20.73 13.1 17.76 11.89 16.32C10.42 14.56 8.06 16.34 7.11 17.73C6.16 19.12 5.46 21.76 7.39 22.66C9.09 23.45 11.75 22.18 12.5 20.57C13.54 18.34 11.39 16.95 9.4 17.83C7.62 18.62 6.71 20.67 7.38 22.5C8.05 24.33 10.1 25.49 12.06 25.08C14.02 24.67 15.5 22.94 15.71 20.92C15.89 19.18 15.05 16.42 12.77 17.01C10.96 17.48 9.23 19.05 9.16 20.98C9.09 23.04 10.8 25.73 13.15 25.04C15.2 24.44 16.35 21.88 16.34 19.91C16.34 18.17 15.12 15.03 12.89 16.6C10.99 17.94 10.84 20.66 10.85 22.76C10.85 23.84 11.8 24.34 12.75 24.21C13.47 24.11 14.08 23.76 14.6 23.26C15.12 22.76 15.43 22.07 16.06 21.7L14.55 19.11C13.63 19.7 12.9 20.45 12.45 21.46C12.09 22.26 12.3 23.48 13.35 23.66C17.47 24.39 21.62 23.4 25.76 23.46C29.9 23.52 34.15 23.7 38.34 23.82C40.27 23.88 40.27 20.88 38.34 20.82C34.3 20.7 30.27 20.55 26.23 20.47C24.3 20.43 22.41 20.51 20.49 20.7C18.38 20.9 16.24 21.14 14.14 20.77L15.04 22.97C15.28 22.42 15.55 22.02 16.06 21.7C17.68 20.67 16.22 18.12 14.55 19.11C14.03 19.41 13.62 19.77 13.24 20.24C12.86 20.71 12.59 21.24 11.96 21.32L13.86 22.77C13.86 21.91 13.83 21.01 14.07 20.18C14.14 19.92 14.5 19.43 14.49 19.22C13.3 18.43 12.85 18.31 13.13 18.87C13.2 19.01 13.25 19.16 13.28 19.32C13.43 19.97 13.33 20.67 13.03 21.27C12.91 21.52 12.63 22.05 12.33 22.14C12.72 22.01 12.33 21.99 12.21 21.53C12.1 21.12 12.14 20.89 12.41 20.58C12.47 20.5 13.35 20.06 13.35 20.01C12.72 19.58 12.51 19.63 12.73 20.15C12.75 20.34 12.75 20.53 12.71 20.72C12.65 21.15 12.49 21.53 12.14 21.82C11.67 22.21 10.95 22.34 10.48 21.89C10.14 21.57 10.01 20.26 10.8 20.55L9.75 19.5C9.75 19.5 8.52 19.79 8.5 19.85C8.92 20.68 9.15 20.85 9.19 20.39C9.22 20.21 9.26 20.04 9.33 19.87C9.49 19.48 9.75 19.13 10.07 18.86C10.2 18.73 10.35 18.63 10.52 18.55C9.67 17.75 9.32 17.71 9.46 18.44C9.19 19.22 9.61 20.39 8.31 20.12C8.04 20.06 7.3 19.78 7.18 19.56C7.32 19.82 7.35 18.6 7.47 18.36L6.57 19.05L6.82 18.99L5.66 18.84C5.13 18.5 5.36 17.85 5.25 18.89C5.21 19.27 5.12 19.62 5 19.99C4.82 20.55 4.58 21.03 4.58 21.64C4.58 22.97 5.62 23.64 6.81 23.84C7.47 23.95 8.15 24 8.82 23.95C9.01 23.94 9.73 23.95 9.85 23.85L10.19 22.74H9.89C9.35 22.5 8.01 22.73 7.41 22.72C6.58 22.72 5.76 22.7 4.93 22.69L5.69 25.49C7.57 24.63 9.03 26.08 10.42 27.07C11.81 28.06 14.17 27.3 15.33 26.14C16.18 25.29 15.61 23.44 14.27 23.58C13.02 23.71 11.78 23.84 10.53 23.98L11.29 26.78C12.45 26.16 13.62 25.54 14.78 24.92L12.52 23.62C12.43 25.08 11.78 27.63 13.48 28.43C14.19 28.77 15.12 28.66 15.53 27.89C16.1 26.83 16.4 25.77 16.55 24.58H13.55C13.72 26.34 14.15 27.95 14.87 29.57C15.43 30.84 17.25 30.31 17.61 29.21C18.16 27.56 18.23 25.92 17.97 24.21C17.74 22.68 15.45 22.89 15.08 24.21C14.85 25.05 14.61 25.88 14.38 26.72C14.32 26.95 14.25 27.18 14.19 27.41L14.88 27.12C14.88 27.12 13.53 26.79 13.46 26.77C11.72 26.33 9.99 25.86 8.28 25.35C7.5 25.12 6.72 24.88 5.94 24.64C5.71 24.57 5.47 24.49 5.24 24.42C4.94 24.32 4.93 24.32 5.2 24.42C5.03 23.99 5.06 23.36 5.01 22.9C4.84 21.14 4.81 19.37 4.89 17.6C4.98 15.67 1.98 15.67 1.89 17.6L1.92 17.62Z" fill="black"/>
<path d="M15.93 22.21C23.72 22.04 31.52 22.66 39.29 23.05C40.73 23.12 41.4 20.89 40.05 20.25C36.51 18.57 32.57 18.34 28.72 18.09C24.52 17.82 20.31 17.78 16.11 18.12C14.2 18.27 14.18 21.26 16.11 21.12C19.59 20.87 23.07 20.62 26.55 20.6C28.33 20.6 30.11 20.71 31.89 20.66C33.58 20.62 35.25 20.39 36.92 20.17C37.32 20.12 37.72 20.06 38.11 20.02L38.46 19.98C38.81 20.07 38.9 19.98 38.73 19.71C38.79 19.04 38.38 19.99 38.34 20.11C38.22 20.49 38.19 20.83 38.26 21.23C38.5 22.67 39.85 23.22 41.15 23.33C42.45 23.44 44.01 23.71 45.03 22.75C46.12 21.72 46.79 19.92 47.52 18.64C48.1 17.63 47.36 16.41 46.22 16.38C45.22 16.35 44.43 16.74 43.67 17.36C43.31 17.65 42.98 17.98 42.61 18.25C42.39 18.41 42.16 18.55 41.93 18.69C41.41 18.89 41.46 18.96 42.08 18.9L43.13 19.95C43.09 20.59 43.22 20.67 43.49 20.17C43.68 19.97 43.88 19.8 44.09 19.63C45.19 18.73 44.19 17.16 43.03 17.07C41.95 16.99 40.99 17.23 40.02 17.69C38.27 18.51 39.8 21.1 41.53 20.28C42.03 20.05 42.48 20.03 43.02 20.07L41.96 17.51C40.86 18.41 38.85 21.12 41.33 21.81C42.2 22.05 43.07 21.51 43.77 21.06C44.42 20.64 45.42 19.35 46.21 19.38L44.91 17.12C44.52 17.81 44.12 18.49 43.73 19.18C43.55 19.49 43.4 19.98 43.14 20.21C42.68 20.63 43.64 20.28 42.61 20.41C42.34 20.44 42.01 20.38 41.74 20.37C41.23 20.34 40.97 20.14 41.11 20.65C41.33 21.45 41.7 19.73 41.69 19.44C41.61 16.07 37.25 17.15 35.22 17.39C32.15 17.76 29.11 17.57 26.03 17.6C22.71 17.64 19.4 17.88 16.09 18.12V21.12C19.97 20.81 23.85 20.81 27.73 21.03C31.3 21.23 35.23 21.28 38.52 22.84L39.28 20.04C31.51 19.65 23.7 19.03 15.92 19.2C13.99 19.24 13.99 22.24 15.92 22.2L15.93 22.21Z" fill="black"/>
<path d="M15.08 19.1101C21.1 18.1701 27.18 19.7101 33.23 19.1801C34.04 19.1101 34.73 18.5401 34.73 17.6801C34.73 16.9201 34.04 16.1101 33.23 16.1801C26.9 16.7301 20.6 15.2301 14.29 16.2201C13.49 16.3501 13.05 17.3501 13.24 18.0701C13.47 18.9201 14.28 19.2401 15.09 19.1201L15.08 19.1101Z" fill="black"/>
<path d="M47.19 14.6999C46.19 17.0299 45.19 19.3699 44.19 21.6999C43.88 22.4199 43.95 23.3399 44.73 23.7499C45.37 24.0899 46.45 23.9799 46.78 23.2099L48.31 19.6499C48.62 18.9299 48.55 18.0099 47.77 17.5999C47.13 17.2599 46.05 17.3699 45.72 18.1399L44.19 21.6999L46.78 23.2099C47.78 20.8799 48.78 18.5399 49.78 16.2099C50.09 15.4899 50.02 14.5699 49.24 14.1599C48.6 13.8199 47.52 13.9299 47.19 14.6999Z" fill="black"/>
<path d="M2.99001 27.0698L16.99 30.2198" stroke="black" stroke-miterlimit="10"/>
<path d="M13.49 23.49H44.99" stroke="black" stroke-miterlimit="10"/>
<path d="M14.99 6.38989H52.99" stroke="black" stroke-miterlimit="10"/>
<path d="M52.99 6.43994L44.99 23.4899" stroke="black" stroke-miterlimit="10"/>
<path d="M3.99001 3.69995L20.49 0.949951" stroke="black" stroke-miterlimit="10"/>
<path d="M4.45 3.65991L3.02 10.8899" stroke="black" stroke-miterlimit="10"/>
<path d="M2.99001 11.01L8.99001 14.67" stroke="black" stroke-miterlimit="10"/>
<path d="M1.99001 18.3298L2.99001 27.0198" stroke="black" stroke-miterlimit="10"/>
<path d="M1.99001 18.3299L8.99001 14.6699" stroke="black" stroke-miterlimit="10"/>
<path d="M17.99 23.8198L17.03 30.4598" stroke="black" stroke-miterlimit="10"/>
<path d="M20.76 0.899902L19.99 6.4399" stroke="black" stroke-miterlimit="10"/>
<mask id="path-17-inside-1_101_2" fill="white">
<path d="M10.784 11.608H6.96L5.84 15H4.4L8.064 4.216H9.744L13.424 15H11.936L10.784 11.608ZM7.248 10.52H10.496L9.44 7.416C9.2 6.712 9.04 6.072 8.88 5.448H8.848C8.688 6.088 8.512 6.744 8.304 7.4L7.248 10.52ZM15.1089 14.472L15.4609 13.304C16.0849 13.688 16.9969 14.008 17.9569 14.008C19.3809 14.008 20.2129 13.256 20.2129 12.168C20.2129 11.16 19.6369 10.584 18.1809 10.024C16.4209 9.4 15.3329 8.488 15.3329 6.968C15.3329 5.288 16.7249 4.04 18.8209 4.04C19.9249 4.04 20.7249 4.296 21.2049 4.568L20.8209 5.704C20.4689 5.512 19.7489 5.192 18.7729 5.192C17.3009 5.192 16.7409 6.072 16.7409 6.808C16.7409 7.816 17.3969 8.312 18.8849 8.888C20.7089 9.592 21.6369 10.472 21.6369 12.056C21.6369 13.72 20.4049 15.16 17.8609 15.16C16.8209 15.16 15.6849 14.856 15.1089 14.472ZM26.2315 15V5.4H22.9515V4.216H30.9355V5.4H27.6395V15H26.2315ZM32.7766 15V4.36C33.4806 4.216 34.4886 4.136 35.4486 4.136C36.9366 4.136 37.8966 4.408 38.5686 5.016C39.1126 5.496 39.4166 6.232 39.4166 7.064C39.4166 8.488 38.5206 9.432 37.3846 9.816V9.864C38.2166 10.152 38.7126 10.92 38.9686 12.04C39.3206 13.544 39.5766 14.584 39.8006 15H38.3606C38.1846 14.696 37.9446 13.768 37.6406 12.424C37.3206 10.936 36.7446 10.376 35.4806 10.328H34.1686V15H32.7766ZM34.1686 5.336V9.272H35.5926C37.0806 9.272 38.0246 8.456 38.0246 7.224C38.0246 5.832 37.0166 5.224 35.5446 5.208C34.8726 5.208 34.3926 5.272 34.1686 5.336ZM46.4409 4.04C49.3849 4.04 51.2889 6.296 51.2889 9.496C51.2889 13.208 49.0329 15.176 46.2809 15.176C43.4329 15.176 41.4329 12.968 41.4329 9.704C41.4329 6.28 43.5609 4.04 46.4409 4.04ZM46.3769 5.176C44.0729 5.176 42.9209 7.304 42.9209 9.672C42.9209 11.976 44.1689 14.04 46.3609 14.04C48.5689 14.04 49.8169 12.008 49.8169 9.56C49.8169 7.416 48.6969 5.176 46.3769 5.176Z"/>
</mask>
<path d="M10.784 11.608H6.96L5.84 15H4.4L8.064 4.216H9.744L13.424 15H11.936L10.784 11.608ZM7.248 10.52H10.496L9.44 7.416C9.2 6.712 9.04 6.072 8.88 5.448H8.848C8.688 6.088 8.512 6.744 8.304 7.4L7.248 10.52ZM15.1089 14.472L15.4609 13.304C16.0849 13.688 16.9969 14.008 17.9569 14.008C19.3809 14.008 20.2129 13.256 20.2129 12.168C20.2129 11.16 19.6369 10.584 18.1809 10.024C16.4209 9.4 15.3329 8.488 15.3329 6.968C15.3329 5.288 16.7249 4.04 18.8209 4.04C19.9249 4.04 20.7249 4.296 21.2049 4.568L20.8209 5.704C20.4689 5.512 19.7489 5.192 18.7729 5.192C17.3009 5.192 16.7409 6.072 16.7409 6.808C16.7409 7.816 17.3969 8.312 18.8849 8.888C20.7089 9.592 21.6369 10.472 21.6369 12.056C21.6369 13.72 20.4049 15.16 17.8609 15.16C16.8209 15.16 15.6849 14.856 15.1089 14.472ZM26.2315 15V5.4H22.9515V4.216H30.9355V5.4H27.6395V15H26.2315ZM32.7766 15V4.36C33.4806 4.216 34.4886 4.136 35.4486 4.136C36.9366 4.136 37.8966 4.408 38.5686 5.016C39.1126 5.496 39.4166 6.232 39.4166 7.064C39.4166 8.488 38.5206 9.432 37.3846 9.816V9.864C38.2166 10.152 38.7126 10.92 38.9686 12.04C39.3206 13.544 39.5766 14.584 39.8006 15H38.3606C38.1846 14.696 37.9446 13.768 37.6406 12.424C37.3206 10.936 36.7446 10.376 35.4806 10.328H34.1686V15H32.7766ZM34.1686 5.336V9.272H35.5926C37.0806 9.272 38.0246 8.456 38.0246 7.224C38.0246 5.832 37.0166 5.224 35.5446 5.208C34.8726 5.208 34.3926 5.272 34.1686 5.336ZM46.4409 4.04C49.3849 4.04 51.2889 6.296 51.2889 9.496C51.2889 13.208 49.0329 15.176 46.2809 15.176C43.4329 15.176 41.4329 12.968 41.4329 9.704C41.4329 6.28 43.5609 4.04 46.4409 4.04ZM46.3769 5.176C44.0729 5.176 42.9209 7.304 42.9209 9.672C42.9209 11.976 44.1689 14.04 46.3609 14.04C48.5689 14.04 49.8169 12.008 49.8169 9.56C49.8169 7.416 48.6969 5.176 46.3769 5.176Z" fill="black"/>
<path d="M10.784 11.608L11.0207 11.5276L10.9631 11.358H10.784V11.608ZM6.96 11.608V11.358H6.77927L6.72261 11.5296L6.96 11.608ZM5.84 15V15.25H6.02073L6.07739 15.0784L5.84 15ZM4.4 15L4.16329 14.9196L4.05102 15.25H4.4V15ZM8.064 4.216V3.966H7.8849L7.82729 4.13557L8.064 4.216ZM9.744 4.216L9.9806 4.13526L9.92284 3.966H9.744V4.216ZM13.424 15V15.25H13.7735L13.6606 14.9193L13.424 15ZM11.936 15L11.6993 15.0804L11.7569 15.25H11.936V15ZM7.248 10.52L7.0112 10.4399L6.89945 10.77H7.248V10.52ZM10.496 10.52V10.77H10.8451L10.7327 10.4395L10.496 10.52ZM9.44 7.416L9.67668 7.33548L9.67663 7.33533L9.44 7.416ZM8.88 5.448L9.12217 5.38591L9.07399 5.198H8.88V5.448ZM8.848 5.448V5.198H8.65281L8.60546 5.38737L8.848 5.448ZM8.304 7.4L8.54085 7.48016L8.54231 7.47556L8.304 7.4ZM10.784 11.358H6.96V11.858H10.784V11.358ZM6.72261 11.5296L5.60261 14.9216L6.07739 15.0784L7.19739 11.6864L6.72261 11.5296ZM5.84 14.75H4.4V15.25H5.84V14.75ZM4.63671 15.0804L8.30071 4.29642L7.82729 4.13557L4.16329 14.9196L4.63671 15.0804ZM8.064 4.466H9.744V3.966H8.064V4.466ZM9.5074 4.29674L13.1874 15.0807L13.6606 14.9193L9.9806 4.13526L9.5074 4.29674ZM13.424 14.75H11.936V15.25H13.424V14.75ZM12.1727 14.9196L11.0207 11.5276L10.5473 11.6884L11.6993 15.0804L12.1727 14.9196ZM7.248 10.77H10.496V10.27H7.248V10.77ZM10.7327 10.4395L9.67668 7.33548L9.20332 7.49652L10.2593 10.6005L10.7327 10.4395ZM9.67663 7.33533C9.44033 6.6422 9.2827 6.01198 9.12217 5.38591L8.63783 5.51009C8.7973 6.13202 8.95967 6.7818 9.20337 7.49667L9.67663 7.33533ZM8.88 5.198H8.848V5.698H8.88V5.198ZM8.60546 5.38737C8.44612 6.02473 8.27153 6.67526 8.06569 7.32444L8.54231 7.47556C8.75247 6.81274 8.92988 6.15127 9.09054 5.50863L8.60546 5.38737ZM8.0672 7.31985L7.0112 10.4399L7.4848 10.6001L8.5408 7.48015L8.0672 7.31985ZM15.1089 14.472L14.8695 14.3999L14.8161 14.5772L14.9702 14.68L15.1089 14.472ZM15.4609 13.304L15.5919 13.0911L15.3152 12.9208L15.2215 13.2319L15.4609 13.304ZM18.1809 10.024L18.2707 9.79058L18.2644 9.78837L18.1809 10.024ZM21.2049 4.568L21.4417 4.64806L21.5079 4.45235L21.3281 4.35049L21.2049 4.568ZM20.8209 5.704L20.7012 5.92347L20.9624 6.06597L21.0577 5.78406L20.8209 5.704ZM18.8849 8.888L18.7946 9.12114L18.7949 9.12123L18.8849 8.888ZM15.3482 14.5441L15.7002 13.3761L15.2215 13.2319L14.8695 14.3999L15.3482 14.5441ZM15.3299 13.5169C15.9884 13.9222 16.9452 14.258 17.9569 14.258V13.758C17.0485 13.758 16.1814 13.4538 15.5919 13.0911L15.3299 13.5169ZM17.9569 14.258C18.7109 14.258 19.3372 14.0588 19.7796 13.6875C20.2262 13.3126 20.4629 12.7804 20.4629 12.168H19.9629C19.9629 12.6436 19.7835 13.0314 19.4581 13.3045C19.1285 13.5812 18.6268 13.758 17.9569 13.758V14.258ZM20.4629 12.168C20.4629 11.6081 20.2995 11.1474 19.9233 10.755C19.5586 10.3746 19.0089 10.0746 18.2706 9.79066L18.0911 10.2573C18.8089 10.5334 19.2751 10.8014 19.5624 11.101C19.8382 11.3886 19.9629 11.7199 19.9629 12.168H20.4629ZM18.2644 9.78837C17.4012 9.48233 16.7289 9.11414 16.2744 8.65594C15.8272 8.20517 15.5829 7.65983 15.5829 6.968H15.0829C15.0829 7.79616 15.3825 8.46683 15.9194 9.00806C16.4489 9.54186 17.2005 9.94167 18.0973 10.2596L18.2644 9.78837ZM15.5829 6.968C15.5829 6.20157 15.8985 5.53879 16.4534 5.06395C17.0106 4.58713 17.8218 4.29 18.8209 4.29V3.79C17.724 3.79 16.7911 4.11686 16.1283 4.68405C15.4632 5.25321 15.0829 6.05443 15.0829 6.968H15.5829ZM18.8209 4.29C19.8875 4.29 20.644 4.5375 21.0816 4.78551L21.3281 4.35049C20.8058 4.0545 19.9623 3.79 18.8209 3.79V4.29ZM20.968 4.48794L20.584 5.62394L21.0577 5.78406L21.4417 4.64806L20.968 4.48794ZM20.9406 5.48453C20.5657 5.28004 19.804 4.942 18.7729 4.942V5.442C19.6937 5.442 20.372 5.74396 20.7012 5.92347L20.9406 5.48453ZM18.7729 4.942C17.9856 4.942 17.4109 5.17855 17.0315 5.54392C16.6543 5.90712 16.4909 6.37817 16.4909 6.808H16.9909C16.9909 6.50183 17.1075 6.16488 17.3783 5.90408C17.6469 5.64545 18.0881 5.442 18.7729 5.442V4.942ZM16.4909 6.808C16.4909 7.37909 16.6821 7.82276 17.0856 8.19398C17.4729 8.55025 18.0476 8.83198 18.7946 9.12114L18.9751 8.65486C18.2341 8.36802 17.7369 8.11375 17.4241 7.82602C17.1276 7.55324 16.9909 7.24491 16.9909 6.808H16.4909ZM18.7949 9.12123C19.6921 9.46755 20.3381 9.8462 20.7599 10.3102C21.1737 10.7653 21.3869 11.3193 21.3869 12.056H21.8869C21.8869 11.2087 21.6361 10.5307 21.1299 9.97383C20.6316 9.4258 19.9016 9.01245 18.9749 8.65477L18.7949 9.12123ZM21.3869 12.056C21.3869 12.8244 21.1037 13.5307 20.5349 14.0469C19.965 14.5639 19.086 14.91 17.8609 14.91V15.41C19.1798 15.41 20.1887 15.0361 20.8709 14.4171C21.554 13.7973 21.8869 12.9516 21.8869 12.056H21.3869ZM17.8609 14.91C16.8537 14.91 15.7706 14.6127 15.2476 14.264L14.9702 14.68C15.5991 15.0993 16.788 15.41 17.8609 15.41V14.91ZM26.2315 15H25.9815V15.25H26.2315V15ZM26.2315 5.4H26.4815V5.15H26.2315V5.4ZM22.9515 5.4H22.7015V5.65H22.9515V5.4ZM22.9515 4.216V3.966H22.7015V4.216H22.9515ZM30.9355 4.216H31.1855V3.966H30.9355V4.216ZM30.9355 5.4V5.65H31.1855V5.4H30.9355ZM27.6395 5.4V5.15H27.3895V5.4H27.6395ZM27.6395 15V15.25H27.8895V15H27.6395ZM26.4815 15V5.4H25.9815V15H26.4815ZM26.2315 5.15H22.9515V5.65H26.2315V5.15ZM23.2015 5.4V4.216H22.7015V5.4H23.2015ZM22.9515 4.466H30.9355V3.966H22.9515V4.466ZM30.6855 4.216V5.4H31.1855V4.216H30.6855ZM30.9355 5.15H27.6395V5.65H30.9355V5.15ZM27.3895 5.4V15H27.8895V5.4H27.3895ZM27.6395 14.75H26.2315V15.25H27.6395V14.75ZM32.7766 15H32.5266V15.25H32.7766V15ZM32.7766 4.36L32.7265 4.11507L32.5266 4.15596V4.36H32.7766ZM38.5686 5.016L38.4009 5.2014L38.4032 5.20346L38.5686 5.016ZM37.3846 9.816L37.3046 9.57916L37.1346 9.63661V9.816H37.3846ZM37.3846 9.864H37.1346V10.042L37.3028 10.1002L37.3846 9.864ZM38.9686 12.04L38.7249 12.0957L38.7252 12.097L38.9686 12.04ZM39.8006 15V15.25H40.2192L40.0207 14.8815L39.8006 15ZM38.3606 15L38.1443 15.1253L38.2165 15.25H38.3606V15ZM37.6406 12.424L37.3962 12.4766L37.3968 12.4792L37.6406 12.424ZM35.4806 10.328L35.4901 10.078H35.4806V10.328ZM34.1686 10.328V10.078H33.9186V10.328H34.1686ZM34.1686 15V15.25H34.4186V15H34.1686ZM34.1686 5.336L34.0999 5.09562L33.9186 5.14742V5.336H34.1686ZM34.1686 9.272H33.9186V9.522H34.1686V9.272ZM35.5446 5.208L35.5473 4.958H35.5446V5.208ZM33.0266 15V4.36H32.5266V15H33.0266ZM32.8267 4.60493C33.5087 4.46543 34.4987 4.386 35.4486 4.386V3.886C34.4785 3.886 33.4525 3.96657 32.7265 4.11507L32.8267 4.60493ZM35.4486 4.386C36.9116 4.386 37.7964 4.65445 38.4009 5.20138L38.7364 4.83062C37.9969 4.16154 36.9616 3.886 35.4486 3.886V4.386ZM38.4032 5.20346C38.8851 5.62863 39.1666 6.29178 39.1666 7.064H39.6666C39.6666 6.17222 39.3402 5.36337 38.734 4.82854L38.4032 5.20346ZM39.1666 7.064C39.1666 8.36192 38.3581 9.22305 37.3046 9.57916L37.4647 10.0528C38.6832 9.64095 39.6666 8.61408 39.6666 7.064H39.1666ZM37.1346 9.816V9.864H37.6346V9.816H37.1346ZM37.3028 10.1002C38.016 10.3471 38.4773 11.0123 38.7249 12.0957L39.2123 11.9843C38.948 10.8277 38.4173 9.95689 37.4664 9.62775L37.3028 10.1002ZM38.7252 12.097C38.9011 12.8485 39.0541 13.4887 39.1914 13.9936C39.3268 14.4913 39.4531 14.8819 39.5805 15.1185L40.0207 14.8815C39.9242 14.7021 39.8105 14.3647 39.6739 13.8624C39.5392 13.3673 39.3882 12.7355 39.212 11.983L38.7252 12.097ZM39.8006 14.75H38.3606V15.25H39.8006V14.75ZM38.577 14.8747C38.5078 14.7553 38.4111 14.4791 38.2897 14.0359C38.1713 13.6035 38.0363 13.0399 37.8845 12.3688L37.3968 12.4792C37.549 13.1521 37.686 13.7245 37.8075 14.1681C37.9261 14.6009 38.0374 14.9407 38.1443 15.1253L38.577 14.8747ZM37.885 12.3714C37.7214 11.6105 37.4837 11.0401 37.0888 10.6566C36.6864 10.266 36.157 10.1035 35.4901 10.0782L35.4711 10.5778C36.0682 10.6005 36.4589 10.742 36.7405 11.0154C37.0295 11.2959 37.2399 11.7495 37.3962 12.4766L37.885 12.3714ZM35.4806 10.078H34.1686V10.578H35.4806V10.078ZM33.9186 10.328V15H34.4186V10.328H33.9186ZM34.1686 14.75H32.7766V15.25H34.1686V14.75ZM33.9186 5.336V9.272H34.4186V5.336H33.9186ZM34.1686 9.522H35.5926V9.022H34.1686V9.522ZM35.5926 9.522C36.3806 9.522 37.0508 9.30578 37.5284 8.90064C38.0099 8.49212 38.2746 7.90862 38.2746 7.224H37.7746C37.7746 7.77138 37.5673 8.21188 37.2049 8.51936C36.8385 8.83022 36.2926 9.022 35.5926 9.022V9.522ZM38.2746 7.224C38.2746 6.46021 37.9938 5.88157 37.4869 5.50022C36.9918 5.12777 36.3114 4.96632 35.5473 4.95801L35.5419 5.45798C36.2499 5.46568 36.8094 5.61623 37.1863 5.89978C37.5514 6.17443 37.7746 6.59579 37.7746 7.224H38.2746ZM35.5446 4.958C34.8631 4.958 34.3564 5.02233 34.0999 5.09562L34.2373 5.57638C34.4288 5.52167 34.8822 5.458 35.5446 5.458V4.958ZM46.4409 4.29C47.8446 4.29 48.9867 4.82568 49.7808 5.73268C50.5776 6.6428 51.0389 7.94456 51.0389 9.496H51.5389C51.5389 7.84744 51.0481 6.4212 50.157 5.40332C49.2631 4.38232 47.9812 3.79 46.4409 3.79V4.29ZM51.0389 9.496C51.0389 11.3007 50.4914 12.6548 49.6356 13.5558C48.7798 14.4568 47.596 14.926 46.2809 14.926V15.426C47.7178 15.426 49.0379 14.9112 49.9981 13.9002C50.9583 12.8892 51.5389 11.4033 51.5389 9.496H51.0389ZM46.2809 14.926C44.9253 14.926 43.7822 14.4023 42.9755 13.4976C42.1669 12.5908 41.6829 11.2853 41.6829 9.704H41.1829C41.1829 11.3867 41.6988 12.8172 42.6023 13.8304C43.5076 14.8457 44.7885 15.426 46.2809 15.426V14.926ZM41.6829 9.704C41.6829 8.04379 42.1982 6.6906 43.0424 5.75553C43.8853 4.82195 45.069 4.29 46.4409 4.29V3.79C44.9328 3.79 43.6124 4.37805 42.6713 5.42047C41.7315 6.4614 41.1829 7.94021 41.1829 9.704H41.6829ZM46.3769 4.926C45.1359 4.926 44.1981 5.50415 43.5797 6.39323C42.9671 7.27382 42.6709 8.45174 42.6709 9.672H43.1709C43.1709 8.52426 43.4507 7.45418 43.9901 6.67877C44.5236 5.91185 45.3139 5.426 46.3769 5.426V4.926ZM42.6709 9.672C42.6709 10.8657 42.9937 12.0122 43.6168 12.8673C44.2444 13.7283 45.1761 14.29 46.3609 14.29V13.79C45.3537 13.79 44.5654 13.3197 44.0209 12.5727C43.4721 11.8198 43.1709 10.7823 43.1709 9.672H42.6709ZM46.3609 14.29C47.552 14.29 48.4887 13.7377 49.1195 12.8644C49.7454 11.998 50.0669 10.823 50.0669 9.56H49.5669C49.5669 10.745 49.2643 11.81 48.7142 12.5716C48.169 13.3263 47.3777 13.79 46.3609 13.79V14.29ZM50.0669 9.56C50.0669 8.44912 49.7775 7.30067 49.1728 6.42224C48.5628 5.53607 47.6301 4.926 46.3769 4.926V5.426C47.4436 5.426 48.231 5.93593 48.761 6.70576C49.2962 7.48333 49.5669 8.52688 49.5669 9.56H50.0669Z" fill="white" mask="url(#path-17-inside-1_101_2)"/>
<path d="M43.49 19.5999C43.36 19.8899 43.22 20.1899 43.14 20.5099C43.06 20.8299 43.02 21.1299 43 21.4399C42.99 21.6299 42.99 21.8299 43.01 22.0199C43.05 22.3499 43.09 22.6699 43.18 22.9899C43.29 23.3599 43.53 23.6899 43.87 23.8899C44.04 23.9999 44.23 24.0599 44.43 24.0699C44.63 24.1099 44.83 24.1099 45.03 24.0399C45.39 23.9199 45.74 23.6999 45.93 23.3499C46.12 22.9999 46.2 22.5799 46.08 22.1899C46.03 22.0299 45.99 21.8699 45.97 21.6999L46.02 22.0999C45.98 21.8199 45.98 21.5299 46.02 21.2499L45.97 21.6499C46.01 21.3799 46.08 21.1199 46.18 20.8699L46.03 21.2299C46.03 21.2299 46.06 21.1599 46.08 21.1199C46.19 20.9499 46.25 20.7599 46.26 20.5599C46.3 20.3599 46.3 20.1599 46.23 19.9599C46.13 19.6099 45.87 19.2299 45.54 19.0599C45.19 18.8799 44.77 18.7799 44.38 18.9099C44.03 19.0199 43.64 19.2499 43.48 19.5999H43.49Z" fill="black"/>
<path d="M46.03 22.5099L46.77 21.1099C46.88 20.9399 46.94 20.7499 46.95 20.5499C46.99 20.3499 46.99 20.1499 46.92 19.9499C46.87 19.7499 46.78 19.5799 46.65 19.4399C46.54 19.2799 46.4 19.1499 46.23 19.0499L45.87 18.8999C45.6 18.8299 45.34 18.8299 45.07 18.8999L44.71 19.0499C44.48 19.1799 44.31 19.3599 44.17 19.5899L43.43 20.9899C43.32 21.1599 43.26 21.3499 43.25 21.5499C43.21 21.7499 43.21 21.9499 43.28 22.1499C43.33 22.3499 43.42 22.5199 43.55 22.6599C43.66 22.8199 43.8 22.9499 43.97 23.0499L44.33 23.1999C44.6 23.2699 44.86 23.2699 45.13 23.1999L45.49 23.0499C45.72 22.9199 45.89 22.7399 46.03 22.5099Z" fill="black"/>
<path d="M1.13 18.25C1.4 20.07 1.77 21.86 2.26 23.63C2.47 24.39 3.33 24.93 4.11 24.68C4.89 24.43 5.38 23.65 5.16 22.83C4.67 21.06 4.3 19.26 4.03 17.45C3.98 17.1 3.63 16.72 3.34 16.55C3.02 16.36 2.54 16.28 2.18 16.4C1.82 16.52 1.47 16.74 1.28 17.09C1.08 17.47 1.07 17.82 1.13 18.25Z" fill="black"/>
<path d="M15.92 23.92L15.97 29.48C15.97 30.26 16.66 31.02 17.47 30.98C18.28 30.94 18.98 30.32 18.97 29.48L18.92 23.92C18.92 23.14 18.23 22.38 17.42 22.42C16.61 22.46 15.91 23.08 15.92 23.92Z" fill="black"/>
<path d="M3.28 27.62L3.55 27.74C4.29 28.08 5.17 27.95 5.6 27.2C6 26.52 5.78 25.53 5.06 25.15C4.5 24.85 3.85 24.72 3.24 24.97C2.63 25.22 2.14 25.7 2.14 26.42C2.14 27.08 2.61 27.69 3.24 27.87C4.48 28.21 5.73 28.47 7.01 28.65C7.65 28.74 8.3 28.8 8.94 28.87C9.33 28.92 9.6 29.06 9.96 29.22C10.98 29.68 12.05 29.94 13.16 30.11C14.27 30.28 15.45 30.3 16.46 30.7L15.56 30.01L15.64 30.12C16.11 30.78 16.95 31.09 17.69 30.66C18.34 30.28 18.7 29.27 18.23 28.61C17.44 27.49 15.88 27.49 14.64 27.31C13.58 27.16 12.48 27.02 11.48 26.62C10.89 26.39 10.38 26.06 9.75 25.95C9.12 25.84 8.53 25.83 7.93 25.75C6.62 25.59 5.33 25.3 4.05 24.96V27.85L3.55 27.73L5.06 25.14L4.79 25.02C4.05 24.68 3.17 24.81 2.74 25.56C2.36 26.21 2.54 27.27 3.28 27.61V27.62Z" fill="black"/>
<path d="M5.11 24.7899C5 24.6599 5 24.6699 5.11 24.8099C5.07 24.7399 5.03 24.6699 4.99 24.5999C5.14 24.8899 5 24.5799 4.99 24.4999C4.97 24.4199 4.95 24.3399 4.94 24.2599C4.96 24.4499 4.97 24.4599 4.94 24.2899C4.94 24.1499 4.93 23.9999 4.92 23.8599C4.91 23.0699 4.91 22.2899 4.69 21.5199C4.5 20.8399 4.29 20.1899 4.17 19.4899C4.09 18.9999 4.2 19.7699 4.14 19.2799C4.12 19.0799 4.1 18.8699 4.08 18.6699C4.05 18.3099 4.03 17.9499 4 17.5899C3.95 16.8099 3.35 16.0499 2.5 16.0899C1.73 16.1199 0.939996 16.7499 0.999996 17.5899C1.06 18.4899 1.13 19.3999 1.27 20.2899C1.39 21.0399 1.63 21.7299 1.82 22.4599C1.84 22.5499 1.87 22.6399 1.88 22.7399C1.87 22.5899 1.87 22.6099 1.88 22.7999C1.89 22.9999 1.9 23.2099 1.9 23.4099C1.9 23.7499 1.9 24.0899 1.93 24.4199C2.02 25.3699 2.3 26.2099 2.95 26.9299C3.48 27.5099 4.54 27.5099 5.07 26.9299C5.64 26.3099 5.64 25.4299 5.07 24.8099L5.11 24.7899Z" fill="black"/>
<path d="M3.41 27.8499L17.09 31.8999L17.89 29.0099L10.93 26.9499C9.07 26.3999 8.28 29.2999 10.13 29.8399L17.09 31.8999C18.95 32.4499 19.74 29.5499 17.89 29.0099L4.21 24.9599C2.35 24.4099 1.56 27.3099 3.41 27.8499Z" fill="black"/>
<path d="M0.0399925 17.8499L2.03999 26.8499L4.92999 26.0499C4.58999 24.5199 4.24999 22.9999 3.90999 21.4699C3.73999 20.6999 2.80999 20.1799 2.05999 20.4199C1.24999 20.6799 0.829992 21.4399 1.00999 22.2699L2.02999 26.8499C2.19999 27.6199 3.12999 28.1399 3.87999 27.8999C4.68999 27.6399 5.10999 26.8799 4.92999 26.0499L2.92999 17.0499C2.75999 16.2799 1.82999 15.7599 1.07999 15.9999C0.269993 16.2599 -0.150008 17.0199 0.0299925 17.8499H0.0399925Z" fill="black"/>
</g>
<defs>
<clipPath id="clip0_101_2">
<rect width="54.74" height="31.97" fill="white"/>
</clipPath>
</defs>
</svg>
